<mxfile host="app.diagrams.net" agent="Mozilla/5.0 (X11; CrOS armv7l 13597.84.0) AppleWebKit/537.36 (KHTML, like Gecko) Chrome/92.0.4515.98 Safari/537.36" version="28.2.5">
  <diagram name="Página-1" id="3WI0cumb1VK-3T5k5ap_">
    <mxGraphModel dx="909" dy="594" grid="1" gridSize="10" guides="1" tooltips="1" connect="1" arrows="1" fold="1" page="1" pageScale="1" pageWidth="827" pageHeight="1169" math="0" shadow="0">
      <root>
        <mxCell id="0" />
        <mxCell id="1" parent="0" />
        <mxCell id="mOwzfhWF00GAwiMT5K6X-5" value="" style="triangle;whiteSpace=wrap;html=1;fillColor=#f8cecc;strokeColor=#b85450;" parent="1" vertex="1">
          <mxGeometry x="410" y="625" width="60" height="80" as="geometry" />
        </mxCell>
        <mxCell id="aqRS8GEtOJOpNkTDANwW-10" style="edgeStyle=orthogonalEdgeStyle;rounded=0;orthogonalLoop=1;jettySize=auto;html=1;" parent="1" source="7G4JXvDecR5G6pI_BcZQ-9" target="jJXYQ208lDUIZBGeOCUP-17" edge="1">
          <mxGeometry relative="1" as="geometry" />
        </mxCell>
        <mxCell id="7G4JXvDecR5G6pI_BcZQ-9" value="" style="shape=process;whiteSpace=wrap;html=1;backgroundOutline=1;fillColor=#f8cecc;strokeColor=#b85450;" parent="1" vertex="1">
          <mxGeometry x="180" y="650" width="120" height="60" as="geometry" />
        </mxCell>
        <mxCell id="7G4JXvDecR5G6pI_BcZQ-10" value="" style="shape=process;whiteSpace=wrap;html=1;backgroundOutline=1;fillColor=#dae8fc;strokeColor=#6c8ebf;" parent="1" vertex="1">
          <mxGeometry x="610" y="650" width="120" height="60" as="geometry" />
        </mxCell>
        <mxCell id="7G4JXvDecR5G6pI_BcZQ-11" value="" style="strokeWidth=2;html=1;shape=mxgraph.flowchart.annotation_2;align=left;labelPosition=right;pointerEvents=1;rotation=90;" parent="1" vertex="1">
          <mxGeometry x="380" y="360" width="140.5" height="429.5" as="geometry" />
        </mxCell>
        <mxCell id="7G4JXvDecR5G6pI_BcZQ-14" value="" style="strokeWidth=2;html=1;shape=mxgraph.flowchart.stored_data;whiteSpace=wrap;rotation=90;fillColor=#f8cecc;strokeColor=#b85450;" parent="1" vertex="1">
          <mxGeometry x="160" y="420" width="100" height="30" as="geometry" />
        </mxCell>
        <mxCell id="7G4JXvDecR5G6pI_BcZQ-19" value="Actor" style="shape=umlActor;verticalLabelPosition=bottom;verticalAlign=top;html=1;outlineConnect=0;" parent="1" vertex="1">
          <mxGeometry x="236.43" y="405" width="30" height="60" as="geometry" />
        </mxCell>
        <mxCell id="7G4JXvDecR5G6pI_BcZQ-24" value="" style="strokeWidth=2;html=1;shape=mxgraph.flowchart.terminator;whiteSpace=wrap;rotation=94;fillColor=#f8cecc;strokeColor=#b85450;" parent="1" vertex="1">
          <mxGeometry x="200.77" y="469.29" width="15" height="30.83" as="geometry" />
        </mxCell>
        <mxCell id="7G4JXvDecR5G6pI_BcZQ-15" value="" style="strokeWidth=2;html=1;shape=mxgraph.flowchart.multi-document;whiteSpace=wrap;rotation=90;fillColor=#f8cecc;strokeColor=#b85450;" parent="1" vertex="1">
          <mxGeometry x="200" y="390.68" width="100" height="93.63" as="geometry" />
        </mxCell>
        <mxCell id="aqRS8GEtOJOpNkTDANwW-2" value="" style="edgeStyle=orthogonalEdgeStyle;rounded=0;orthogonalLoop=1;jettySize=auto;html=1;" parent="1" source="7G4JXvDecR5G6pI_BcZQ-26" target="7G4JXvDecR5G6pI_BcZQ-11" edge="1">
          <mxGeometry relative="1" as="geometry" />
        </mxCell>
        <mxCell id="7G4JXvDecR5G6pI_BcZQ-26" value="Actor" style="shape=umlActor;verticalLabelPosition=bottom;verticalAlign=top;html=1;outlineConnect=0;" parent="1" vertex="1">
          <mxGeometry x="228.93" y="410" width="31.07" height="55" as="geometry" />
        </mxCell>
        <mxCell id="aqRS8GEtOJOpNkTDANwW-16" style="edgeStyle=orthogonalEdgeStyle;rounded=0;orthogonalLoop=1;jettySize=auto;html=1;" parent="1" source="mOwzfhWF00GAwiMT5K6X-3" edge="1">
          <mxGeometry relative="1" as="geometry">
            <mxPoint x="670" y="790" as="targetPoint" />
          </mxGeometry>
        </mxCell>
        <mxCell id="mOwzfhWF00GAwiMT5K6X-3" value="vá para curitiba,br" style="text;html=1;align=center;verticalAlign=middle;whiteSpace=wrap;rounded=0;" parent="1" vertex="1">
          <mxGeometry x="650" y="665" width="60" height="30" as="geometry" />
        </mxCell>
        <mxCell id="mOwzfhWF00GAwiMT5K6X-4" value="ou" style="text;html=1;align=center;verticalAlign=middle;whiteSpace=wrap;rounded=0;" parent="1" vertex="1">
          <mxGeometry x="410" y="650" width="60" height="30" as="geometry" />
        </mxCell>
        <mxCell id="mOwzfhWF00GAwiMT5K6X-10" value="filme" style="text;html=1;align=center;verticalAlign=middle;whiteSpace=wrap;rounded=0;" parent="1" vertex="1">
          <mxGeometry x="216" y="360" width="60" height="30" as="geometry" />
        </mxCell>
        <mxCell id="mOwzfhWF00GAwiMT5K6X-19" value="Vá para&amp;nbsp; parís,FRa" style="text;html=1;align=center;verticalAlign=middle;whiteSpace=wrap;rounded=0;" parent="1" vertex="1">
          <mxGeometry x="221" y="665" width="60" height="30" as="geometry" />
        </mxCell>
        <mxCell id="D92IfSwZZHhSxUAplu1H-2" value="França" style="text;html=1;align=center;verticalAlign=middle;whiteSpace=wrap;rounded=0;" parent="1" vertex="1">
          <mxGeometry x="149.99999999999997" y="830" width="60" height="30" as="geometry" />
        </mxCell>
        <mxCell id="8GxUNQn4zOJa0zgD4ehd-25" value="" style="edgeStyle=orthogonalEdgeStyle;rounded=0;orthogonalLoop=1;jettySize=auto;html=1;fontFamily=Helvetica;fontSize=12;fontColor=default;fontStyle=1;resizable=0;horizontal=1;" edge="1" parent="1" source="_uPkiOccVEEA_xpRctQ4-26" target="8GxUNQn4zOJa0zgD4ehd-24">
          <mxGeometry relative="1" as="geometry" />
        </mxCell>
        <mxCell id="_uPkiOccVEEA_xpRctQ4-26" value="ajuda a limpar Paris e tem tanta ir para lua avisar que um meteorio chega na lua ou na terra mas uma bomba sera feita vc faz uma bomba ou ou os astronastas. o meteorio está vindo!" style="text;html=1;whiteSpace=wrap;overflow=hidden;rounded=0;fillColor=#dae8fc;strokeColor=#6c8ebf;" parent="1" vertex="1">
          <mxGeometry x="80" y="920" width="180" height="110" as="geometry" />
        </mxCell>
        <mxCell id="KpLziENEFw-F1CWbmfCE-8" style="edgeStyle=orthogonalEdgeStyle;rounded=0;orthogonalLoop=1;jettySize=auto;html=1;exitX=0.5;exitY=1;exitDx=0;exitDy=0;entryX=0.467;entryY=0;entryDx=0;entryDy=0;entryPerimeter=0;" parent="1" source="_uPkiOccVEEA_xpRctQ4-28" edge="1" target="KpLziENEFw-F1CWbmfCE-1">
          <mxGeometry relative="1" as="geometry">
            <mxPoint x="440" y="1390" as="targetPoint" />
            <Array as="points">
              <mxPoint x="678" y="1250" />
              <mxPoint x="440" y="1250" />
            </Array>
          </mxGeometry>
        </mxCell>
        <mxCell id="_uPkiOccVEEA_xpRctQ4-28" value="&amp;nbsp;vc foi passiar em curitiba e compra algumas coisas nessarias e comprou um carro novo!" style="text;html=1;whiteSpace=wrap;overflow=hidden;rounded=0;" parent="1" vertex="1">
          <mxGeometry x="587.5" y="1000" width="180" height="110" as="geometry" />
        </mxCell>
        <mxCell id="aqRS8GEtOJOpNkTDANwW-7" style="edgeStyle=orthogonalEdgeStyle;rounded=0;orthogonalLoop=1;jettySize=auto;html=1;" parent="1" source="aqRS8GEtOJOpNkTDANwW-1" target="7G4JXvDecR5G6pI_BcZQ-11" edge="1">
          <mxGeometry relative="1" as="geometry" />
        </mxCell>
        <mxCell id="aqRS8GEtOJOpNkTDANwW-1" value="&lt;h3 style=&quot;margin-top: 0px;&quot;&gt;&lt;p style=&quot;text-align: center;&quot;&gt;&lt;font style=&quot;font-size: 18px;&quot;&gt;&lt;span style=&quot;background-color: transparent;&quot;&gt;&amp;nbsp; &amp;nbsp; &amp;nbsp;averturas&lt;br&gt;&lt;/span&gt;&lt;span style=&quot;background-color: transparent;&quot;&gt;&amp;nbsp; &amp;nbsp; &amp;nbsp;incriveis&lt;/span&gt;&lt;/font&gt;&lt;/p&gt;&lt;/h3&gt;&lt;p style=&quot;text-align: justify; margin-top: 0px;&quot;&gt;&amp;nbsp; &amp;nbsp; &amp;nbsp; &amp;nbsp; &amp;nbsp;vc tem uma missão!&lt;/p&gt;&lt;h1 style=&quot;text-align: justify; margin-top: 0px;&quot;&gt;&lt;br&gt;&lt;/h1&gt;" style="text;html=1;whiteSpace=wrap;overflow=hidden;rounded=1;fillColor=#e1d5e7;strokeColor=#9673a6;arcSize=20;spacingRight=5;spacingLeft=5;container=1;" parent="1" vertex="1">
          <mxGeometry x="354.88" y="240" width="180.25" height="120" as="geometry" />
        </mxCell>
        <mxCell id="aqRS8GEtOJOpNkTDANwW-9" value="" style="group" parent="1" vertex="1" connectable="0">
          <mxGeometry x="88.93" y="760" width="140" height="70" as="geometry" />
        </mxCell>
        <mxCell id="jJXYQ208lDUIZBGeOCUP-13" value="" style="shape=process;whiteSpace=wrap;html=1;backgroundOutline=1;size=0.2857142857142857;fillColor=#001D57;fontColor=#ffffff;strokeColor=#000840;" parent="aqRS8GEtOJOpNkTDANwW-9" vertex="1">
          <mxGeometry width="140" height="70" as="geometry" />
        </mxCell>
        <mxCell id="jJXYQ208lDUIZBGeOCUP-17" value="" style="rounded=1;whiteSpace=wrap;html=1;" parent="aqRS8GEtOJOpNkTDANwW-9" vertex="1">
          <mxGeometry x="40" width="60" height="70" as="geometry" />
        </mxCell>
        <mxCell id="D92IfSwZZHhSxUAplu1H-1" value="" style="rounded=0;whiteSpace=wrap;html=1;fillColor=#a20025;fontColor=#ffffff;strokeColor=#6F0000;" parent="aqRS8GEtOJOpNkTDANwW-9" vertex="1">
          <mxGeometry x="100" width="40" height="70" as="geometry" />
        </mxCell>
        <mxCell id="aqRS8GEtOJOpNkTDANwW-17" style="edgeStyle=orthogonalEdgeStyle;rounded=0;orthogonalLoop=1;jettySize=auto;html=1;entryX=0.436;entryY=0.012;entryDx=0;entryDy=0;entryPerimeter=0;" parent="1" source="_uPkiOccVEEA_xpRctQ4-13" target="_uPkiOccVEEA_xpRctQ4-28" edge="1">
          <mxGeometry relative="1" as="geometry" />
        </mxCell>
        <mxCell id="r7tazw0BGjEx804p_Tos-2" value="" style="group" parent="1" vertex="1" connectable="0">
          <mxGeometry x="575.13" y="830" width="215" height="124.74000000000001" as="geometry" />
        </mxCell>
        <mxCell id="mOwzfhWF00GAwiMT5K6X-16" value="" style="rounded=1;whiteSpace=wrap;html=1;absoluteArcSize=1;arcSize=14;strokeWidth=2;" parent="r7tazw0BGjEx804p_Tos-2" vertex="1">
          <mxGeometry y="4.740000000000009" width="215" height="120" as="geometry" />
        </mxCell>
        <mxCell id="_uPkiOccVEEA_xpRctQ4-10" value="" style="shape=document;whiteSpace=wrap;html=1;boundedLbl=1;fillColor=#008a00;fontColor=#ffffff;strokeColor=#005700;" parent="r7tazw0BGjEx804p_Tos-2" vertex="1">
          <mxGeometry width="215" height="40" as="geometry" />
        </mxCell>
        <mxCell id="_uPkiOccVEEA_xpRctQ4-1" value="" style="ellipse;whiteSpace=wrap;html=1;aspect=fixed;fillColor=#00256E;fontColor=#ffffff;strokeColor=#001DBC;" parent="r7tazw0BGjEx804p_Tos-2" vertex="1">
          <mxGeometry x="75" y="39.49000000000001" width="50.51" height="50.51" as="geometry" />
        </mxCell>
        <mxCell id="_uPkiOccVEEA_xpRctQ4-2" value="" style="rounded=0;whiteSpace=wrap;html=1;rotation=0;" parent="r7tazw0BGjEx804p_Tos-2" vertex="1">
          <mxGeometry x="75" y="58.83000000000004" width="50" height="11.83" as="geometry" />
        </mxCell>
        <mxCell id="_uPkiOccVEEA_xpRctQ4-13" value="" style="shape=document;whiteSpace=wrap;html=1;boundedLbl=1;fillColor=#008a00;fontColor=#ffffff;strokeColor=#005700;rotation=-180;" parent="r7tazw0BGjEx804p_Tos-2" vertex="1">
          <mxGeometry y="90" width="215" height="30" as="geometry" />
        </mxCell>
        <mxCell id="8GxUNQn4zOJa0zgD4ehd-32" value="párana" style="text;html=1;align=center;verticalAlign=middle;whiteSpace=wrap;rounded=0;fontFamily=Helvetica;fontSize=12;fontColor=default;fontStyle=1;resizable=0;horizontal=1;" vertex="1" parent="r7tazw0BGjEx804p_Tos-2">
          <mxGeometry x="75" y="49.75" width="60" height="30" as="geometry" />
        </mxCell>
        <mxCell id="ArSorwwp8VmiKisGjD68-1" value="vc vá para?" style="text;html=1;align=center;verticalAlign=middle;whiteSpace=wrap;rounded=0;" parent="1" vertex="1">
          <mxGeometry x="410" y="330" width="70" height="20" as="geometry" />
        </mxCell>
        <mxCell id="KpLziENEFw-F1CWbmfCE-1" value="" style="swimlane;startSize=40;horizontal=1;childLayout=treeLayout;horizontalTree=0;sortEdges=1;resizable=0;containerType=tree;fontSize=12;flipV=0;" parent="1" vertex="1">
          <mxGeometry x="225.13" y="1270" width="345" height="241" as="geometry" />
        </mxCell>
        <mxCell id="KpLziENEFw-F1CWbmfCE-2" value="" style="whiteSpace=wrap;html=1;" parent="KpLziENEFw-F1CWbmfCE-1" vertex="1">
          <mxGeometry x="123.88" y="71" width="132.5" height="50" as="geometry" />
        </mxCell>
        <mxCell id="KpLziENEFw-F1CWbmfCE-3" value="" style="whiteSpace=wrap;html=1;" parent="KpLziENEFw-F1CWbmfCE-1" vertex="1">
          <mxGeometry x="55.129999999999995" y="171" width="110" height="50" as="geometry" />
        </mxCell>
        <mxCell id="KpLziENEFw-F1CWbmfCE-4" value="" style="edgeStyle=elbowEdgeStyle;elbow=vertical;html=1;rounded=1;curved=0;sourcePerimeterSpacing=0;targetPerimeterSpacing=0;startSize=6;endSize=6;" parent="KpLziENEFw-F1CWbmfCE-1" source="KpLziENEFw-F1CWbmfCE-2" target="KpLziENEFw-F1CWbmfCE-3" edge="1">
          <mxGeometry relative="1" as="geometry" />
        </mxCell>
        <mxCell id="KpLziENEFw-F1CWbmfCE-5" value="" style="whiteSpace=wrap;html=1;" parent="KpLziENEFw-F1CWbmfCE-1" vertex="1">
          <mxGeometry x="205.13" y="171" width="120" height="50" as="geometry" />
        </mxCell>
        <mxCell id="KpLziENEFw-F1CWbmfCE-6" value="" style="edgeStyle=elbowEdgeStyle;elbow=vertical;html=1;rounded=1;curved=0;sourcePerimeterSpacing=0;targetPerimeterSpacing=0;startSize=6;endSize=6;" parent="KpLziENEFw-F1CWbmfCE-1" source="KpLziENEFw-F1CWbmfCE-2" target="KpLziENEFw-F1CWbmfCE-5" edge="1">
          <mxGeometry relative="1" as="geometry" />
        </mxCell>
        <mxCell id="8GxUNQn4zOJa0zgD4ehd-1" value="Amazonia&amp;nbsp;" style="text;html=1;align=center;verticalAlign=middle;whiteSpace=wrap;rounded=0;fontFamily=Helvetica;fontSize=12;fontColor=default;fontStyle=1;resizable=0;horizontal=1;" vertex="1" parent="KpLziENEFw-F1CWbmfCE-1">
          <mxGeometry x="154" y="81" width="60" height="30" as="geometry" />
        </mxCell>
        <mxCell id="8GxUNQn4zOJa0zgD4ehd-36" value="" style="shape=image;html=1;verticalLabelPosition=bottom;verticalAlign=top;imageAspect=1;aspect=fixed;image=img/clipart/Gear_128x128.png;strokeColor=default;align=center;fontFamily=Helvetica;fontSize=12;fontColor=default;fontStyle=1;resizable=0;horizontal=1;fillColor=default;" vertex="1" parent="KpLziENEFw-F1CWbmfCE-1">
          <mxGeometry x="20" y="60" width="52" height="61" as="geometry" />
        </mxCell>
        <mxCell id="KpLziENEFw-F1CWbmfCE-9" style="edgeStyle=orthogonalEdgeStyle;rounded=0;orthogonalLoop=1;jettySize=auto;html=1;exitX=0;exitY=0.75;exitDx=0;exitDy=0;" parent="1" source="_uPkiOccVEEA_xpRctQ4-10" target="D92IfSwZZHhSxUAplu1H-1" edge="1">
          <mxGeometry relative="1" as="geometry" />
        </mxCell>
        <mxCell id="KpLziENEFw-F1CWbmfCE-10" value="" style="shape=actor;whiteSpace=wrap;html=1;" parent="1" vertex="1">
          <mxGeometry x="535.13" y="1000" width="40" height="60" as="geometry" />
        </mxCell>
        <mxCell id="8GxUNQn4zOJa0zgD4ehd-9" value="" style="endArrow=none;html=1;rounded=0;fontFamily=Helvetica;fontSize=12;fontColor=default;fontStyle=1;resizable=0;horizontal=1;exitX=0.5;exitY=0;exitDx=0;exitDy=0;" edge="1" parent="1" source="8GxUNQn4zOJa0zgD4ehd-24">
          <mxGeometry width="50" height="50" relative="1" as="geometry">
            <mxPoint x="216" y="1003" as="sourcePoint" />
            <mxPoint x="560" y="910" as="targetPoint" />
            <Array as="points" />
          </mxGeometry>
        </mxCell>
        <mxCell id="8GxUNQn4zOJa0zgD4ehd-24" value="sim&lt;div&gt;parabens&lt;/div&gt;&lt;div&gt;vc construiu&lt;/div&gt;&lt;div&gt;&lt;br&gt;&lt;/div&gt;" style="text;html=1;whiteSpace=wrap;overflow=hidden;rounded=1;fillColor=#dae8fc;strokeColor=#6c8ebf;" vertex="1" parent="1">
          <mxGeometry x="48.93000000000001" y="1110" width="180" height="110" as="geometry" />
        </mxCell>
        <mxCell id="aqRS8GEtOJOpNkTDANwW-13" style="edgeStyle=orthogonalEdgeStyle;rounded=0;orthogonalLoop=1;jettySize=auto;html=1;exitX=0.5;exitY=1;exitDx=0;exitDy=0;entryX=0.443;entryY=0.091;entryDx=0;entryDy=0;entryPerimeter=0;" parent="1" source="jJXYQ208lDUIZBGeOCUP-17" edge="1" target="_uPkiOccVEEA_xpRctQ4-26">
          <mxGeometry relative="1" as="geometry">
            <mxPoint x="120" y="930" as="targetPoint" />
          </mxGeometry>
        </mxCell>
        <mxCell id="8GxUNQn4zOJa0zgD4ehd-28" value="Não!&lt;div&gt;&amp;nbsp;eles controe&lt;/div&gt;" style="text;strokeColor=none;fillColor=none;html=1;fontSize=12;fontStyle=1;verticalAlign=middle;align=center;fontFamily=Helvetica;fontColor=default;resizable=0;horizontal=1;" vertex="1" parent="1">
          <mxGeometry x="140.77" y="1120" width="100" height="40" as="geometry" />
        </mxCell>
        <mxCell id="8GxUNQn4zOJa0zgD4ehd-29" value="Actor" style="shape=umlActor;verticalLabelPosition=bottom;verticalAlign=top;outlineConnect=0;strokeColor=#d79b00;align=center;fontFamily=Helvetica;fontSize=12;fontStyle=1;resizable=0;horizontal=1;fillColor=#ffe6cc;noLabel=1;" vertex="1" parent="1">
          <mxGeometry x="124" y="1120" width="30" height="60" as="geometry" />
        </mxCell>
        <mxCell id="8GxUNQn4zOJa0zgD4ehd-30" value="" style="shape=flexArrow;endArrow=classic;html=1;rounded=0;fontFamily=Helvetica;fontSize=12;fontColor=default;fontStyle=1;resizable=0;horizontal=1;" edge="1" parent="1">
          <mxGeometry width="50" height="50" relative="1" as="geometry">
            <mxPoint x="510" y="930" as="sourcePoint" />
            <mxPoint x="565.13" y="904.74" as="targetPoint" />
          </mxGeometry>
        </mxCell>
        <mxCell id="8GxUNQn4zOJa0zgD4ehd-34" style="edgeStyle=orthogonalEdgeStyle;rounded=0;orthogonalLoop=1;jettySize=auto;html=1;exitX=0.5;exitY=1;exitDx=0;exitDy=0;entryX=0.503;entryY=0.545;entryDx=0;entryDy=0;entryPerimeter=0;fontFamily=Helvetica;fontSize=12;fontColor=default;fontStyle=1;resizable=0;horizontal=1;" edge="1" parent="1" source="_uPkiOccVEEA_xpRctQ4-28" target="_uPkiOccVEEA_xpRctQ4-28">
          <mxGeometry relative="1" as="geometry" />
        </mxCell>
      </root>
    </mxGraphModel>
  </diagram>
</mxfile>
